<svg width="55" height="55" viewBox="0 0 55 55" fill="none" xmlns="http://www.w3.org/2000/svg">
<g clip-path="url(#clip0)">
<path d="M54.9634 31.154V42.5272C54.9634 43.0331 54.5532 43.4433 54.0473 43.4433H51.8717C51.3658 43.4433 50.9556 43.0331 50.9556 42.5272C50.9556 42.0213 51.3658 41.6112 51.8717 41.6112H53.1313V31.154C53.1313 29.6919 52.4262 28.307 51.2453 27.4497C47.7387 24.904 41.0014 21.0775 32.6376 21.5131L33.2341 26.1059C33.2992 26.6075 32.9453 27.0672 32.4436 27.1323C31.9417 27.1975 31.4823 26.8434 31.4172 26.3419L30.8111 21.6751C25.4085 22.3522 20.3532 24.7206 16.1382 28.5684H39.2829C40.6739 28.5684 41.973 27.9476 42.8468 26.8652C43.1646 26.4715 43.7413 26.41 44.135 26.7278C44.5287 27.0455 44.5902 27.6223 44.2724 28.016C43.0491 29.5314 41.2305 30.4005 39.283 30.4005H14.0358L3.8448 33.2313C2.65977 33.5605 1.83211 34.6494 1.83211 35.8793V41.3708H3.2062C3.71209 41.3708 4.12225 41.781 4.12225 42.2869C4.12225 42.7928 3.71209 43.2029 3.2062 43.2029H0.916056C0.410164 43.2029 0 42.7928 0 42.2869V35.8793C0 33.8295 1.37935 32.0147 3.35437 31.4661L13.4088 28.6731C23.3875 18.2514 38.8789 16.2079 52.3216 25.9671C53.9757 27.168 54.9634 29.107 54.9634 31.154ZM18.8937 42.3092C18.8937 45.8449 16.017 48.7216 12.4813 48.7216C8.94552 48.7216 6.06887 45.8449 6.06887 42.3092C6.06887 38.7734 8.94552 35.8968 12.4813 35.8968C16.017 35.8968 18.8937 38.7734 18.8937 42.3092ZM17.0615 42.3092C17.0615 39.7836 15.0068 37.7289 12.4813 37.7289C9.9557 37.7289 7.90098 39.7836 7.90098 42.3092C7.90098 44.8348 9.9557 46.8895 12.4813 46.8895C15.0068 46.8895 17.0615 44.8349 17.0615 42.3092ZM48.8945 42.3092C48.8945 45.8449 46.0178 48.7216 42.4821 48.7216C38.9464 48.7216 36.0697 45.8449 36.0697 42.3092C36.0697 38.7734 38.9464 35.8968 42.4821 35.8968C46.0178 35.8968 48.8945 38.7734 48.8945 42.3092ZM47.0624 42.3092C47.0624 39.7836 45.0077 37.7289 42.4821 37.7289C39.9565 37.7289 37.9018 39.7836 37.9018 42.3092C37.9018 44.8348 39.9565 46.8895 42.4821 46.8895C45.0077 46.8895 47.0624 44.8349 47.0624 42.3092ZM33.5506 41.6221H21.7563C21.2504 41.6221 20.8403 42.0323 20.8403 42.5382C20.8403 43.0441 21.2504 43.4543 21.7563 43.4543H33.5506C34.0564 43.4543 34.4666 43.0441 34.4666 42.5382C34.4666 42.0323 34.0564 41.6221 33.5506 41.6221ZM48.3342 15.83C49.4057 16.9015 48.6561 18.7621 47.1196 18.7621C45.601 18.7621 44.8224 16.9127 45.9051 15.83C46.2296 15.5056 46.6609 15.3269 47.1196 15.3269C47.8912 15.327 48.3342 15.83 48.3342 15.83ZM51.3301 14.1297C51.6879 13.772 51.6879 13.1919 51.3301 12.8342C49.0029 10.5071 45.2366 10.5069 42.9093 12.8342C42.5515 13.1919 42.5515 13.7719 42.9093 14.1297C43.267 14.4874 43.847 14.4874 44.2047 14.1297C45.8159 12.5186 48.4232 12.5185 50.0345 14.1297C50.3922 14.4874 50.9722 14.4874 51.3301 14.1297ZM40.8041 10.729C44.2948 7.23834 49.9443 7.23811 53.4353 10.729C53.6141 10.9078 53.8485 10.9973 54.083 10.9973C54.8918 10.9973 55.3095 10.0122 54.7308 9.43343C50.5242 5.22691 43.7156 5.22645 39.5087 9.43343C39.1509 9.79115 39.1509 10.3711 39.5087 10.729C39.8663 11.0868 40.4464 11.0868 40.8041 10.729Z" fill="#22B2BE"/>
</g>
<defs>
<clipPath id="clip0">
<rect width="55" height="55" fill="white"/>
</clipPath>
</defs>
</svg>
